#!OML:ASF X:\für Bonn\!DataBase\2005_08_12_Daniel\c3d\Daniel.ASF
:FULLY-SPECIFIED
:DEGREES
77
root -9.45091 20.0237 0.342995 -22.0484 81.5741 -386.921
lowerback 12.2048 1.13657 6.15427
upperback -3.05435 2.34814 -1.73859
thorax -9.87186 0.694676 -5.84875
lowerneck 8.57189 2.3733 -6.17249
upperneck 3.82531 2.73963 1.03809
head -0.343855 1.34518 1.28208
rclavicle 2.63887e-014 -3.18055e-015
rhumerus 25.2276 34.5762 -80.8204
rradius 88.349
rwrist -4.14375
rhand -28.6264 28.7256
rfingers 7.12502
rthumb -1.99092 -1.24491
lclavicle 2.63887e-014 -3.18055e-015
lhumerus 31.2037 -23.8096 67.2092
lradius 99.994
lwrist 16.7313
lhand -17.1 -18.3812
lfingers 7.12502
lthumb 9.13883 11.4008
rfemur -1.39452 8.03356 26.2071
rtibia 37.497
rfoot 24.1606 -8.60645
rtoes -6.81841
lfemur -5.86305 0.753478 -18.4962
ltibia 57.8454
lfoot 15.5853 -3.21194
ltoes -5.13861
78
root -9.22798 20.1264 0.342538 -22.1339 81.551 -386.492
lowerback 12.4458 1.14167 6.16654
upperback -2.90102 2.36544 -1.75856
thorax -9.83891 0.706408 -5.88743
lowerneck 8.33498 2.37854 -6.44375
upperneck 4.01131 2.74179 1.21152
head -0.253649 1.33893 1.38756
rclavicle -1.73937e-015 6.36111e-015
rhumerus 25.9557 34.7261 -80.4734
rradius 89.0139
rwrist -3.95991
rhand -28.7307 29.0276
rfingers 7.12502
rthumb -2.09158 -0.941912
lclavicle -1.73937e-015 6.36111e-015
lhumerus 32.0905 -24.4029 66.8764
lradius 100.308
lwrist 17.0438
lhand -17.5243 -18.2594
lfingers 7.12502
lthumb 8.72944 11.5401
rfemur -1.78065 7.47447 26.2364
rtibia 38.8107
rfoot 23.5918 -7.51024
rtoes -6.98273
lfemur -6.10782 0.570641 -18.6365
ltibia 59.2475
lfoot 15.6144 -3.38072
ltoes -6.78023
79
root -8.99899 20.2375 0.340879 -22.2221 81.5292 -386.036
lowerback 12.7793 1.13661 6.17911
upperback -2.72914 2.37637 -1.76118
thorax -9.84093 0.714505 -5.91013
lowerneck 8.06508 2.40249 -6.75873
upperneck 4.2117 2.76809 1.42779
head -0.155848 1.34358 1.51487
rclavicle 1.8487e-014 9.54166e-015
rhumerus 26.5848 34.9412 -80.0752
rradius 89.5068
rwrist -4.00131
rhand -28.9604 29.3607
rfingers 7.12502
rthumb -2.3135 -0.60655
lclavicle 1.8487e-014 9.54166e-015
lhumerus 32.6346 -25.0864 66.7163
lradius 100.742
lwrist 17.4357
lhand -18.0004 -17.9004
lfingers 7.12502
lthumb 8.26999 11.9177
rfemur -2.10664 6.82847 26.2184
rtibia 39.8853
rfoot 23.1907 -6.36459
rtoes -7.48582
lfemur -6.28566 0.458355 -18.7459
ltibia 60.3736
lfoot 15.5598 -3.54381
ltoes -8.83133
80
root -8.76706 20.3503 0.341003 -22.4295 81.4936 -385.512
lowerback 13.3696 1.13024 6.15692
upperback -2.50059 2.39593 -1.75188
thorax -9.9297 0.726453 -5.91278
lowerneck 7.73395 2.39483 -6.9937
upperneck 4.45042 2.76635 1.56554
head -0.0315458 1.33533 1.6051
rclavicle -1.33186e-014 1.82882e-014
rhumerus 27.0417 35.1548 -79.8113
rradius 89.8672
rwrist -4.14831
rhand -29.1213 29.5175
rfingers 7.12502
rthumb -2.46885 -0.448004
lclavicle -1.33186e-014 1.82882e-014
lhumerus 32.8093 -25.83 66.7062
lradius 101.329
lwrist 17.9181
lhand -18.3611 -17.4681
lfingers 7.12502
lthumb 7.92178 12.3635
rfemur -2.21287 6.13613 26.1996
rtibia 40.7648
rfoot 22.8393 -5.24156
rtoes -9.28488
lfemur -6.22482 0.55288 -18.7502
ltibia 61.2015
lfoot 15.3557 -3.88613
ltoes -10.2994
81
root -8.53656 20.4538 0.340599 -22.8676 81.458 -385.097
lowerback 14.1476 1.09935 6.17221
upperback -2.23198 2.40051 -1.74634
thorax -10.083 0.726991 -5.94644
lowerneck 7.39844 2.40142 -7.19589
upperneck 4.67838 2.78649 1.72183
head 0.0894476 1.33836 1.6957
rclavicle -1.91827e-014 5.56597e-015
rhumerus 27.4012 35.422 -79.5882
rradius 90.1623
rwrist -4.49479
rhand -29.3337 29.457
rfingers 7.12502
rthumb -2.67397 -0.505938
lclavicle -1.91827e-014 5.56597e-015
lhumerus 32.7218 -26.6076 66.8604
lradius 101.94
lwrist 18.3936
lhand -18.663 -17.1042
lfingers 7.12502
lthumb 7.63048 12.7381
rfemur -2.21549 5.32864 26.1866
rtibia 41.5413
rfoot 22.6314 -4.04534
rtoes -10.6751
lfemur -5.98011 0.782753 -18.6677
ltibia 61.7639
lfoot 14.9948 -4.35409
ltoes -10.6961
82
root -8.31281 20.5467 0.338442 -23.1424 81.4519 -384.691
lowerback 14.8431 1.06494 6.1815
upperback -2.01269 2.39552 -1.74986
thorax -10.2428 0.721793 -5.98246
lowerneck 6.97803 2.39079 -7.31901
upperneck 4.95039 2.79756 1.84532
head 0.240922 1.33749 1.76374
rclavicle -1.44119e-014 -5.56597e-015
rhumerus 27.5907 35.6797 -79.4686
rradius 90.4367
rwrist -4.91881
rhand -29.472 29.207
rfingers 7.12502
rthumb -2.80753 -0.754286
lclavicle -1.44119e-014 -5.56597e-015
lhumerus 32.3666 -27.4009 67.198
lradius 102.51
lwrist 18.797
lhand -18.7933 -16.8606
lfingers 7.12502
lthumb 7.50471 12.9863
rfemur -2.50123 4.41127 26.1241
rtibia 42.2525
rfoot 22.4456 -2.79522
rtoes -11.7592
lfemur -5.89641 1.04528 -18.5761
ltibia 62.1241
lfoot 14.5125 -4.81969
ltoes -9.76924
83
root -8.0965 20.6278 0.336181 -23.3297 81.4441 -384.4
lowerback 15.4099 1.03814 6.18011
upperback -1.84884 2.3933 -1.74365
thorax -10.3891 0.718296 -5.99774
lowerneck 6.50319 2.36914 -7.37993
upperneck 5.24261 2.80428 1.90368
head 0.41036 1.33534 1.80116
rclavicle 1.43125e-014 3.97569e-015
rhumerus 27.6944 35.959 -79.3973
rradius 90.621
rwrist -5.40662
rhand -29.6114 28.8924
rfingers 7.12502
rthumb -2.94214 -1.06704
lclavicle 1.43125e-014 3.97569e-015
lhumerus 31.9209 -28.1905 67.5738
lradius 102.901
lwrist 19.1308
lhand -19.0578 -16.8078
lfingers 7.12502
lthumb 7.24934 13.048
rfemur -3.06872 3.48507 26.0572
rtibia 42.8756
rfoot 22.1743 -1.86443
rtoes -13.3936
lfemur -6.01152 1.40657 -18.4251
ltibia 62.3749
lfoot 13.5716 -5.25587
ltoes -9.98859
